<!-- icon666.com - MILLIONS vector ICONS FREE --><svg id="Layer_1" enable-background="new 0 0 512 512" viewBox="0 0 512 512" xmlns="http://www.w3.org/2000/svg"><path d="m495.834 197.457c-.077-.127-.155-.253-.235-.378-1.897-2.944-2.813-6.358-2.646-9.874.007-.138.011-.276.014-.414.396-20.175-5.023-41.053-15.261-58.79-10.226-17.714-25.592-32.849-43.269-42.616-.127-.07-.256-.139-.386-.206-3.13-1.612-5.634-4.111-7.241-7.229-.064-.124-.13-.248-.197-.37-9.753-17.681-24.887-33.053-42.613-43.286-17.729-10.233-38.582-15.662-58.782-15.269-.146.002-.294.008-.44.015-3.518.17-6.925-.744-9.883-2.644-.115-.074-.231-.146-.349-.217-17.269-10.433-38.061-16.179-58.546-16.179-20.474 0-41.265 5.742-58.544 16.167-.127.076-.252.155-.377.235-2.943 1.897-6.356 2.813-9.872 2.645-.139-.006-.278-.011-.417-.014-20.17-.395-41.052 5.023-58.79 15.261-17.715 10.226-32.85 25.593-42.616 43.269-.07.127-.139.256-.206.385-1.612 3.13-4.112 5.634-7.229 7.242-.125.064-.248.13-.37.197-17.681 9.754-33.053 24.887-43.286 42.613-10.233 17.729-15.656 38.605-15.269 58.782.002.147.008.294.015.441.171 3.506-.744 6.924-2.644 9.884-.074.115-.146.23-.217.347-10.432 17.269-16.178 38.06-16.178 58.546 0 20.474 5.742 41.265 16.167 58.544.076.127.155.252.235.377 1.897 2.944 2.812 6.357 2.645 9.872-.006.139-.011.278-.014.417-.396 20.174 5.023 41.053 15.261 58.79 10.226 17.715 25.593 32.85 43.269 42.616.127.07.256.139.385.206 3.13 1.612 5.634 4.112 7.242 7.229.064.125.13.248.197.37 9.754 17.681 24.887 33.053 42.613 43.286 17.729 10.234 38.614 15.667 58.782 15.269.147-.002.294-.008.441-.015 3.51-.172 6.924.744 9.884 2.644.115.074.23.146.347.217 17.269 10.432 38.06 16.178 58.546 16.178 20.474 0 41.265-5.742 58.544-16.167.127-.077.253-.155.378-.235 2.943-1.897 6.352-2.817 9.872-2.645.139.006.277.011.416.014 20.165.403 41.052-5.022 58.789-15.261 17.716-10.227 32.851-25.593 42.616-43.27.07-.127.139-.256.206-.386 1.611-3.129 4.11-5.633 7.228-7.24.125-.064.249-.13.372-.198 17.681-9.754 33.053-24.887 43.284-42.612 10.233-17.729 15.656-38.604 15.269-58.782-.003-.146-.008-.293-.015-.439-.17-3.508.744-6.927 2.646-9.888.073-.114.145-.229.215-.346 10.434-17.268 16.18-38.06 16.18-58.545 0-20.472-5.741-41.263-16.166-58.543zm-44.111-54.458c7.515 13.019 11.508 28.29 11.252 43.024-.407 9.625 2.104 18.983 7.271 27.094 5.051 8.421 8.58 17.991 10.379 27.882h-33.475c-3.235-41.61-19.817-79.53-45.45-109.487l19.27-19.27c12.528 7.179 23.421 18.054 30.753 30.757zm-180.723-48.031c33.351 3.082 63.801 16.326 88.21 36.608l-88.21 88.211zm-51.213 146.032h-124.819c3.082-33.352 16.326-63.801 36.608-88.21zm-66.998-109.423c24.41-20.283 54.859-33.527 88.211-36.609v124.819zm66.998 139.423-88.21 88.21c-20.283-24.409-33.527-54.858-36.609-88.21zm21.213 21.213v124.819c-33.352-3.082-63.801-16.326-88.211-36.608zm30 0 88.21 88.21c-24.409 20.282-54.859 33.526-88.21 36.608zm21.213-21.213h124.819c-3.082 33.352-16.326 63.801-36.608 88.211zm0-30 88.211-88.211c20.283 24.409 33.526 54.859 36.608 88.211zm33.768-191.983c14.692-.241 30.007 3.749 43.02 11.261 12.711 7.337 23.583 18.232 30.749 30.76l-19.264 19.262c-29.957-25.633-67.877-42.214-109.486-45.449v-33.475c9.897 1.8 19.465 5.332 27.879 10.39 8.128 5.164 17.492 7.677 27.102 7.251zm-182.982 11.26c13.018-7.515 28.286-11.501 43.023-11.253 9.625.415 18.984-2.102 27.097-7.27 8.42-5.051 17.989-8.58 27.881-10.379v33.475c-41.61 3.235-79.529 19.817-109.487 45.45l-19.27-19.27c7.178-12.527 18.053-23.42 30.756-30.753zm-101.234 152.846c5.164-8.128 7.668-17.489 7.251-27.103-.246-14.738 3.75-30.009 11.261-43.021 7.337-12.71 18.232-23.583 30.76-30.749l19.263 19.263c-25.633 29.958-42.214 67.877-45.449 109.487h-33.475c1.8-9.896 5.332-19.464 10.389-27.877zm18.512 155.878c-7.515-13.018-11.508-28.291-11.253-43.023.409-9.625-2.102-18.984-7.27-27.096-5.051-8.42-8.58-17.99-10.379-27.881h33.475c3.235 41.61 19.817 79.529 45.45 109.487l-19.27 19.27c-12.527-7.179-23.42-18.054-30.753-30.757zm125.742 93.982c-14.752.225-30.009-3.75-43.02-11.261-12.71-7.337-23.583-18.232-30.749-30.76l19.263-19.263c29.957 25.633 67.877 42.214 109.487 45.45v33.475c-9.896-1.8-19.464-5.332-27.877-10.389-8.128-5.164-17.481-7.676-27.104-7.252zm182.982-11.26c-13.018 7.515-28.293 11.502-43.023 11.253-9.615-.415-18.985 2.102-27.098 7.271-8.42 5.051-17.988 8.579-27.88 10.378v-33.475c41.609-3.235 79.529-19.816 109.486-45.45l19.27 19.27c-7.176 12.527-18.051 23.42-30.755 30.753zm101.232-152.844c-5.161 8.127-7.666 17.488-7.251 27.1.247 14.739-3.749 30.01-11.26 43.022-7.337 12.71-18.232 23.582-30.76 30.749l-19.263-19.263c25.633-29.957 42.215-67.877 45.45-109.487h33.475c-1.801 9.897-5.333 19.466-10.391 27.879z"></path></svg>